<mxfile host="app.diagrams.net" modified="2023-01-11T14:45:16.244Z" agent="5.0 (Windows NT 10.0; Win64; x64) AppleWebKit/537.36 (KHTML, like Gecko) Chrome/108.0.0.0 Safari/537.36" version="20.8.3" etag="IwiTnTfau6MCPOmFEsU_" type="github">
  <diagram id="WcUE_By-wOnT4tQpPtWz" name="Página-1">
    <mxGraphModel dx="1000" dy="523" grid="1" gridSize="10" guides="1" tooltips="1" connect="1" arrows="1" fold="1" page="1" pageScale="1" pageWidth="827" pageHeight="1169" math="0" shadow="0">
      <root>
        <object label="" id="0">
          <mxCell />
        </object>
        <mxCell id="1" parent="0" />
        <mxCell id="16ACVwWChQ0P19Md0Vb3-1" value="&lt;font color=&quot;#000000&quot;&gt;Cliente&lt;/font&gt;" style="rounded=0;whiteSpace=wrap;html=1;fillColor=#f8cecc;strokeColor=#b85450;" vertex="1" parent="1">
          <mxGeometry x="80" y="160" width="120" height="60" as="geometry" />
        </mxCell>
        <mxCell id="16ACVwWChQ0P19Md0Vb3-2" value="&lt;font color=&quot;#000000&quot;&gt;Produto&lt;/font&gt;" style="rounded=0;whiteSpace=wrap;html=1;fillColor=#f8cecc;strokeColor=#b85450;" vertex="1" parent="1">
          <mxGeometry x="340" y="160" width="120" height="60" as="geometry" />
        </mxCell>
        <mxCell id="16ACVwWChQ0P19Md0Vb3-3" value="&lt;font color=&quot;#000000&quot;&gt;Fornecedor&lt;/font&gt;" style="rounded=0;whiteSpace=wrap;html=1;fillColor=#f8cecc;strokeColor=#b85450;" vertex="1" parent="1">
          <mxGeometry x="600" y="160" width="120" height="60" as="geometry" />
        </mxCell>
        <mxCell id="16ACVwWChQ0P19Md0Vb3-4" value="&lt;font color=&quot;#000000&quot;&gt;Transacao&lt;/font&gt;" style="rounded=0;whiteSpace=wrap;html=1;fillColor=#f8cecc;strokeColor=#b85450;" vertex="1" parent="1">
          <mxGeometry x="200" y="380" width="120" height="60" as="geometry" />
        </mxCell>
        <mxCell id="16ACVwWChQ0P19Md0Vb3-5" value="&lt;font color=&quot;#000000&quot;&gt;Contém&lt;/font&gt;" style="rhombus;whiteSpace=wrap;html=1;fillColor=#dae8fc;strokeColor=#6c8ebf;" vertex="1" parent="1">
          <mxGeometry x="360" y="270" width="80" height="80" as="geometry" />
        </mxCell>
        <mxCell id="16ACVwWChQ0P19Md0Vb3-6" value="&lt;font color=&quot;#000000&quot;&gt;Fornece&lt;/font&gt;" style="rhombus;whiteSpace=wrap;html=1;fillColor=#dae8fc;strokeColor=#6c8ebf;" vertex="1" parent="1">
          <mxGeometry x="490" y="150" width="80" height="80" as="geometry" />
        </mxCell>
        <mxCell id="16ACVwWChQ0P19Md0Vb3-7" value="&lt;font color=&quot;#000000&quot;&gt;Efetua&lt;/font&gt;" style="rhombus;whiteSpace=wrap;html=1;fillColor=#dae8fc;strokeColor=#6c8ebf;" vertex="1" parent="1">
          <mxGeometry x="100" y="270" width="80" height="80" as="geometry" />
        </mxCell>
        <mxCell id="16ACVwWChQ0P19Md0Vb3-9" value="" style="endArrow=none;html=1;rounded=0;" edge="1" parent="1">
          <mxGeometry width="50" height="50" relative="1" as="geometry">
            <mxPoint x="140" y="270" as="sourcePoint" />
            <mxPoint x="139.5" y="220" as="targetPoint" />
          </mxGeometry>
        </mxCell>
        <mxCell id="16ACVwWChQ0P19Md0Vb3-10" value="" style="endArrow=none;html=1;rounded=0;" edge="1" parent="1">
          <mxGeometry width="50" height="50" relative="1" as="geometry">
            <mxPoint x="140" y="410" as="sourcePoint" />
            <mxPoint x="139.5" y="350" as="targetPoint" />
          </mxGeometry>
        </mxCell>
        <mxCell id="16ACVwWChQ0P19Md0Vb3-11" value="" style="endArrow=none;html=1;rounded=0;" edge="1" parent="1">
          <mxGeometry width="50" height="50" relative="1" as="geometry">
            <mxPoint x="400" y="410" as="sourcePoint" />
            <mxPoint x="320" y="409.5" as="targetPoint" />
          </mxGeometry>
        </mxCell>
        <mxCell id="16ACVwWChQ0P19Md0Vb3-12" value="" style="endArrow=none;html=1;rounded=0;" edge="1" parent="1">
          <mxGeometry width="50" height="50" relative="1" as="geometry">
            <mxPoint x="200" y="409.5" as="sourcePoint" />
            <mxPoint x="139.5" y="409.5" as="targetPoint" />
          </mxGeometry>
        </mxCell>
        <mxCell id="16ACVwWChQ0P19Md0Vb3-13" value="" style="endArrow=none;html=1;rounded=0;" edge="1" parent="1">
          <mxGeometry width="50" height="50" relative="1" as="geometry">
            <mxPoint x="400" y="410" as="sourcePoint" />
            <mxPoint x="399.5" y="350" as="targetPoint" />
          </mxGeometry>
        </mxCell>
        <mxCell id="16ACVwWChQ0P19Md0Vb3-14" value="" style="endArrow=none;html=1;rounded=0;" edge="1" parent="1">
          <mxGeometry width="50" height="50" relative="1" as="geometry">
            <mxPoint x="490" y="190" as="sourcePoint" />
            <mxPoint x="460" y="189.5" as="targetPoint" />
          </mxGeometry>
        </mxCell>
        <mxCell id="16ACVwWChQ0P19Md0Vb3-15" value="" style="endArrow=none;html=1;rounded=0;" edge="1" parent="1">
          <mxGeometry width="50" height="50" relative="1" as="geometry">
            <mxPoint x="400" y="270" as="sourcePoint" />
            <mxPoint x="399.5" y="220" as="targetPoint" />
          </mxGeometry>
        </mxCell>
        <mxCell id="16ACVwWChQ0P19Md0Vb3-16" value="" style="endArrow=none;html=1;rounded=0;" edge="1" parent="1">
          <mxGeometry width="50" height="50" relative="1" as="geometry">
            <mxPoint x="600" y="190.25" as="sourcePoint" />
            <mxPoint x="570" y="189.75" as="targetPoint" />
          </mxGeometry>
        </mxCell>
        <mxCell id="16ACVwWChQ0P19Md0Vb3-21" value="" style="shape=waypoint;sketch=0;fillStyle=solid;size=6;pointerEvents=1;points=[];resizable=0;rotatable=0;perimeter=centerPerimeter;snapToPoint=1;labelBackgroundColor=#000000;" vertex="1" parent="1">
          <mxGeometry x="80" y="130" width="20" height="20" as="geometry" />
        </mxCell>
        <mxCell id="16ACVwWChQ0P19Md0Vb3-22" value="" style="endArrow=none;html=1;rounded=0;" edge="1" parent="1">
          <mxGeometry width="50" height="50" relative="1" as="geometry">
            <mxPoint x="89.86" y="160" as="sourcePoint" />
            <mxPoint x="89.86000000000023" y="140" as="targetPoint" />
          </mxGeometry>
        </mxCell>
        <mxCell id="16ACVwWChQ0P19Md0Vb3-25" value="" style="endArrow=none;html=1;rounded=0;" edge="1" parent="1">
          <mxGeometry width="50" height="50" relative="1" as="geometry">
            <mxPoint x="139.86" y="160" as="sourcePoint" />
            <mxPoint x="139.86000000000024" y="140" as="targetPoint" />
          </mxGeometry>
        </mxCell>
        <mxCell id="16ACVwWChQ0P19Md0Vb3-27" value="" style="endArrow=none;html=1;rounded=0;" edge="1" parent="1">
          <mxGeometry width="50" height="50" relative="1" as="geometry">
            <mxPoint x="164.86" y="160" as="sourcePoint" />
            <mxPoint x="164.86000000000024" y="140" as="targetPoint" />
          </mxGeometry>
        </mxCell>
        <mxCell id="16ACVwWChQ0P19Md0Vb3-28" value="" style="endArrow=none;html=1;rounded=0;" edge="1" parent="1">
          <mxGeometry width="50" height="50" relative="1" as="geometry">
            <mxPoint x="116.00000000000001" y="160" as="sourcePoint" />
            <mxPoint x="116.00000000000024" y="140" as="targetPoint" />
          </mxGeometry>
        </mxCell>
        <mxCell id="16ACVwWChQ0P19Md0Vb3-29" value="" style="endArrow=none;html=1;rounded=0;" edge="1" parent="1">
          <mxGeometry width="50" height="50" relative="1" as="geometry">
            <mxPoint x="190" y="160" as="sourcePoint" />
            <mxPoint x="190.00000000000023" y="140" as="targetPoint" />
          </mxGeometry>
        </mxCell>
        <mxCell id="16ACVwWChQ0P19Md0Vb3-39" value="" style="ellipse;whiteSpace=wrap;html=1;labelBackgroundColor=#000000;fontColor=#000000;fillColor=#000000;" vertex="1" parent="1">
          <mxGeometry x="113" y="137.5" width="5" height="5" as="geometry" />
        </mxCell>
        <mxCell id="16ACVwWChQ0P19Md0Vb3-40" value="" style="ellipse;whiteSpace=wrap;html=1;labelBackgroundColor=#000000;fontColor=#000000;fillColor=#000000;" vertex="1" parent="1">
          <mxGeometry x="137" y="137.5" width="5" height="5" as="geometry" />
        </mxCell>
        <mxCell id="16ACVwWChQ0P19Md0Vb3-41" value="" style="ellipse;whiteSpace=wrap;html=1;labelBackgroundColor=#000000;fontColor=#000000;fillColor=#000000;" vertex="1" parent="1">
          <mxGeometry x="162" y="137.5" width="5" height="5" as="geometry" />
        </mxCell>
        <mxCell id="16ACVwWChQ0P19Md0Vb3-42" value="" style="ellipse;whiteSpace=wrap;html=1;labelBackgroundColor=#000000;fontColor=#000000;fillColor=#000000;" vertex="1" parent="1">
          <mxGeometry x="188" y="137.5" width="5" height="5" as="geometry" />
        </mxCell>
        <mxCell id="16ACVwWChQ0P19Md0Vb3-43" value="&lt;font color=&quot;#ffffff&quot;&gt;Cod_Cli&lt;/font&gt;" style="text;html=1;align=center;verticalAlign=middle;resizable=0;points=[];autosize=1;strokeColor=none;fillColor=none;fontColor=#000000;" vertex="1" parent="1">
          <mxGeometry x="43" y="113.5" width="70" height="30" as="geometry" />
        </mxCell>
        <mxCell id="16ACVwWChQ0P19Md0Vb3-44" value="1:N" style="text;whiteSpace=wrap;html=1;fontColor=#FFFFFF;" vertex="1" parent="1">
          <mxGeometry x="170" y="390" width="50" height="40" as="geometry" />
        </mxCell>
        <mxCell id="16ACVwWChQ0P19Md0Vb3-45" value="1:1" style="text;whiteSpace=wrap;html=1;fontColor=#FFFFFF;" vertex="1" parent="1">
          <mxGeometry x="120" y="220" width="50" height="40" as="geometry" />
        </mxCell>
        <mxCell id="16ACVwWChQ0P19Md0Vb3-46" value="Nome" style="text;whiteSpace=wrap;html=1;fontColor=#FFFFFF;" vertex="1" parent="1">
          <mxGeometry x="100" y="113.5" width="70" height="40" as="geometry" />
        </mxCell>
        <mxCell id="16ACVwWChQ0P19Md0Vb3-47" value="1:N" style="text;whiteSpace=wrap;html=1;fontColor=#FFFFFF;" vertex="1" parent="1">
          <mxGeometry x="400" y="220" width="50" height="40" as="geometry" />
        </mxCell>
        <mxCell id="16ACVwWChQ0P19Md0Vb3-48" value="1:1" style="text;whiteSpace=wrap;html=1;fontColor=#FFFFFF;" vertex="1" parent="1">
          <mxGeometry x="321" y="386" width="50" height="40" as="geometry" />
        </mxCell>
      </root>
    </mxGraphModel>
  </diagram>
</mxfile>
